<svg xmlns="http://www.w3.org/2000/svg" width="800" height="700" viewBox="0 0 800 700">
<defs>
<linearGradient id="bg" x2=".2" y2="1"><stop stop-color="#3a2836"/><stop offset=".55" stop-color="#251c28"/><stop offset="1" stop-color="#15151e"/></linearGradient>
<linearGradient id="front" x1="0" y1=".1" x2="1" y2=".85"><stop stop-color="#ecc9c4"/><stop offset=".37" stop-color="#c09299"/><stop offset="1" stop-color="#825869"/></linearGradient>
<linearGradient id="side" x2="1" y2="1"><stop stop-color="#6e475a"/><stop offset="1" stop-color="#3b293c"/></linearGradient>
<linearGradient id="inside" x2="1"><stop stop-color="#352334"/><stop offset="1" stop-color="#b6818d"/></linearGradient>
<radialGradient id="sun"><stop stop-color="#ffe8cb"/><stop offset=".7" stop-color="#dbb2a3"/><stop offset="1" stop-color="#9f7280"/></radialGradient>
<radialGradient id="floor"><stop stop-color="#d8a0aa" stop-opacity=".18"/><stop offset="1" stop-color="#d8a0aa" stop-opacity="0"/></radialGradient>
<filter id="blur"><feGaussianBlur stdDeviation="13"/></filter>
</defs>
<rect width="800" height="700" fill="url(#bg)"/>
<ellipse cx="419" cy="584" rx="250" ry="47" fill="url(#floor)"/>
<ellipse cx="413" cy="572" rx="159" ry="18" fill="#0b0712" opacity=".65" filter="url(#blur)"/>
<circle cx="392" cy="268" r="98" fill="url(#sun)"/>
<path d="M304 554V323C304 208 361 137 449 137C537 137 585 208 585 323V554L550 573H512V321C512 251 486 215 441 215C399 215 376 253 376 322V554L341 573Z" fill="url(#side)"/>
<path d="M270 573V337C270 222 327 151 415 151C503 151 551 222 551 337V573H478V335C478 264 452 228 407 228C365 228 342 266 342 336V573Z" fill="url(#front)"/>
<path d="M342 573V336C342 266 365 228 407 228C423 228 435 232 445 241C400 230 375 276 375 338V553Z" fill="url(#inside)"/>
<path d="M269 571V337C269 222 327 151 415 151C458 151 493 169 516 200" fill="none" stroke="#f8d9cf" stroke-width="1.8" opacity=".5"/>
<path d="M551 337V573L585 554" fill="none" stroke="#ba8b96" stroke-opacity=".4"/>
<path d="M206 578H630" stroke="#ae8498" stroke-opacity=".12"/>
<path d="M62 73h22M73 62v22" stroke="#ecd0d6" opacity=".3"/>
<g fill="#ecc7d5" opacity=".25"><circle cx="164" cy="277" r="1"/><circle cx="640" cy="308" r="1"/><circle cx="647" cy="137" r="1"/></g>
</svg>
