<svg xmlns="http://www.w3.org/2000/svg" width="800" height="700" viewBox="0 0 800 700">
<defs>
<radialGradient id="bg" cx=".52" cy=".46"><stop stop-color="#4c352b"/><stop offset=".65" stop-color="#2b2323"/><stop offset="1" stop-color="#19181f"/></radialGradient>
<radialGradient id="orb" cx=".36" cy=".28" r=".8"><stop stop-color="#edd2aa"/><stop offset=".3" stop-color="#be8e67"/><stop offset=".6" stop-color="#946140"/><stop offset=".83" stop-color="#4f332f"/><stop offset="1" stop-color="#241f25"/></radialGradient>
<linearGradient id="ring" x1=".1" y1=".1" x2=".9" y2=".9"><stop stop-color="#f4dcbc"/><stop offset=".35" stop-color="#af896b"/><stop offset=".6" stop-color="#5d4638"/><stop offset="1" stop-color="#bd9476"/></linearGradient>
<radialGradient id="floor"><stop stop-color="#c68b58" stop-opacity=".19"/><stop offset="1" stop-color="#c68b58" stop-opacity="0"/></radialGradient>
<filter id="blur"><feGaussianBlur stdDeviation="15"/></filter>
<clipPath id="ballclip"><circle cx="402" cy="325" r="157"/></clipPath>
</defs>
<rect width="800" height="700" fill="url(#bg)"/>
<ellipse cx="415" cy="589" rx="252" ry="44" fill="url(#floor)"/>
<ellipse cx="413" cy="569" rx="147" ry="18" fill="#130c14" opacity=".8" filter="url(#blur)"/>
<g transform="rotate(-23 402 325)">
<ellipse cx="402" cy="328" rx="250" ry="91" fill="none" stroke="#342a29" stroke-width="18"/>
<ellipse cx="402" cy="321" rx="250" ry="91" fill="none" stroke="url(#ring)" stroke-width="15"/>
<ellipse cx="402" cy="317" rx="250" ry="89" fill="none" stroke="#f3ddc0" stroke-opacity=".42" stroke-width="1"/>
</g>
<circle cx="402" cy="325" r="157" fill="url(#orb)"/>
<g clip-path="url(#ballclip)" fill="none" stroke="#f9ddb8" stroke-opacity=".11">
<ellipse cx="402" cy="325" rx="127" ry="157"/><ellipse cx="402" cy="325" rx="82" ry="157"/><ellipse cx="402" cy="325" rx="30" ry="157"/>
<ellipse cx="402" cy="325" rx="157" ry="107"/><ellipse cx="402" cy="325" rx="157" ry="59"/><path d="M245 325H559"/>
</g>
<g transform="rotate(-23 402 325)">
<path d="M152 322C152 372 264 412 402 412C540 412 652 372 652 322" fill="none" stroke="#342a29" stroke-width="20"/>
<path d="M152 316C152 366 264 406 402 406C540 406 652 366 652 316" fill="none" stroke="url(#ring)" stroke-width="15"/>
<path d="M152 312C152 362 264 402 402 402C540 402 652 362 652 312" fill="none" stroke="#efd7b9" stroke-opacity=".55" stroke-width="1.4"/>
</g>
<circle cx="558" cy="130" r="15" fill="url(#orb)"/>
<path d="M62 73h22M73 62v22" stroke="#ecd3bf" opacity=".3"/>
</svg>
